<svg xmlns="http://www.w3.org/2000/svg" xmlns:xlink="http://www.w3.org/1999/xlink" width="500" zoomAndPan="magnify" viewBox="0 0 375 374.999991" height="500" preserveAspectRatio="xMidYMid meet" version="1.0"><defs><g/><clipPath id="2acf3d25d4"><path d="M 243.5 175.1875 L 273.78125 175.1875 L 273.78125 214.21875 L 243.5 214.21875 Z M 243.5 175.1875 " clip-rule="nonzero"/></clipPath><clipPath id="167c47c06a"><path d="M 258.640625 175.1875 C 250.28125 175.1875 243.5 183.914062 243.5 194.679688 C 243.5 205.441406 250.28125 214.167969 258.640625 214.167969 C 267 214.167969 273.78125 205.441406 273.78125 194.679688 C 273.78125 183.914062 267 175.1875 258.640625 175.1875 Z M 258.640625 175.1875 " clip-rule="nonzero"/></clipPath><clipPath id="df10f30125"><path d="M 57.492188 175.1875 L 87.769531 175.1875 L 87.769531 214.21875 L 57.492188 214.21875 Z M 57.492188 175.1875 " clip-rule="nonzero"/></clipPath><clipPath id="15500de357"><path d="M 72.628906 175.1875 C 64.269531 175.1875 57.492188 183.914062 57.492188 194.679688 C 57.492188 205.441406 64.269531 214.167969 72.628906 214.167969 C 80.992188 214.167969 87.769531 205.441406 87.769531 194.679688 C 87.769531 183.914062 80.992188 175.1875 72.628906 175.1875 Z M 72.628906 175.1875 " clip-rule="nonzero"/></clipPath></defs><g fill="#ffffff" fill-opacity="1"><g transform="translate(50.712892, 213.749986)"><g><path d="M 21.84375 0.828125 C 18.238281 0.828125 15.078125 -0.0234375 12.359375 -1.734375 C 9.648438 -3.453125 7.535156 -5.851562 6.015625 -8.9375 C 4.503906 -12.03125 3.75 -15.640625 3.75 -19.765625 C 3.75 -23.921875 4.503906 -27.550781 6.015625 -30.65625 C 7.535156 -33.757812 9.648438 -36.171875 12.359375 -37.890625 C 15.078125 -39.609375 18.238281 -40.46875 21.84375 -40.46875 C 25.445312 -40.46875 28.601562 -39.609375 31.3125 -37.890625 C 34.03125 -36.171875 36.148438 -33.757812 37.671875 -30.65625 C 39.191406 -27.550781 39.953125 -23.921875 39.953125 -19.765625 C 39.953125 -15.640625 39.191406 -12.03125 37.671875 -8.9375 C 36.148438 -5.851562 34.03125 -3.453125 31.3125 -1.734375 C 28.601562 -0.0234375 25.445312 0.828125 21.84375 0.828125 Z M 21.84375 -4.6875 C 24.582031 -4.6875 26.835938 -5.382812 28.609375 -6.78125 C 30.378906 -8.1875 31.6875 -10.035156 32.53125 -12.328125 C 33.382812 -14.617188 33.8125 -17.097656 33.8125 -19.765625 C 33.8125 -22.429688 33.382812 -24.914062 32.53125 -27.21875 C 31.6875 -29.53125 30.378906 -31.394531 28.609375 -32.8125 C 26.835938 -34.238281 24.582031 -34.953125 21.84375 -34.953125 C 19.101562 -34.953125 16.847656 -34.238281 15.078125 -32.8125 C 13.316406 -31.394531 12.007812 -29.53125 11.15625 -27.21875 C 10.300781 -24.914062 9.875 -22.429688 9.875 -19.765625 C 9.875 -17.097656 10.300781 -14.617188 11.15625 -12.328125 C 12.007812 -10.035156 13.316406 -8.1875 15.078125 -6.78125 C 16.847656 -5.382812 19.101562 -4.6875 21.84375 -4.6875 Z M 21.84375 -4.6875 "/></g></g></g><g fill="#ffffff" fill-opacity="1"><g transform="translate(94.39453, 213.749986)"><g><path d="M 5.625 14.984375 L 5.625 -39.953125 L 11.546875 -39.953125 L 11.546875 -33.59375 L 12.28125 -33.59375 C 12.726562 -34.289062 13.351562 -35.179688 14.15625 -36.265625 C 14.96875 -37.347656 16.128906 -38.316406 17.640625 -39.171875 C 19.160156 -40.035156 21.222656 -40.46875 23.828125 -40.46875 C 27.179688 -40.46875 30.140625 -39.625 32.703125 -37.9375 C 35.273438 -36.257812 37.28125 -33.875 38.71875 -30.78125 C 40.15625 -27.695312 40.875 -24.0625 40.875 -19.875 C 40.875 -15.632812 40.15625 -11.96875 38.71875 -8.875 C 37.28125 -5.78125 35.285156 -3.390625 32.734375 -1.703125 C 30.191406 -0.015625 27.253906 0.828125 23.921875 0.828125 C 21.359375 0.828125 19.304688 0.398438 17.765625 -0.453125 C 16.222656 -1.316406 15.035156 -2.296875 14.203125 -3.390625 C 13.367188 -4.492188 12.726562 -5.410156 12.28125 -6.140625 L 11.75 -6.140625 L 11.75 14.984375 Z M 11.65625 -19.96875 C 11.65625 -15.445312 12.632812 -11.769531 14.59375 -8.9375 C 16.5625 -6.101562 19.394531 -4.6875 23.09375 -4.6875 C 25.65625 -4.6875 27.800781 -5.363281 29.53125 -6.71875 C 31.257812 -8.082031 32.5625 -9.921875 33.4375 -12.234375 C 34.3125 -14.546875 34.75 -17.125 34.75 -19.96875 C 34.75 -22.78125 34.316406 -25.316406 33.453125 -27.578125 C 32.597656 -29.835938 31.304688 -31.628906 29.578125 -32.953125 C 27.859375 -34.285156 25.695312 -34.953125 23.09375 -34.953125 C 19.34375 -34.953125 16.5 -33.570312 14.5625 -30.8125 C 12.625 -28.0625 11.65625 -24.445312 11.65625 -19.96875 Z M 11.65625 -19.96875 "/></g></g></g><g fill="#ffffff" fill-opacity="1"><g transform="translate(139.012202, 213.749986)"><g><path d="M 22.984375 -39.953125 L 22.984375 -34.75 L 14.453125 -34.75 L 14.453125 -11.4375 C 14.453125 -9.707031 14.707031 -8.410156 15.21875 -7.546875 C 15.738281 -6.691406 16.398438 -6.117188 17.203125 -5.828125 C 18.003906 -5.546875 18.859375 -5.40625 19.765625 -5.40625 C 20.441406 -5.40625 20.992188 -5.441406 21.421875 -5.515625 C 21.859375 -5.597656 22.207031 -5.664062 22.46875 -5.71875 L 23.71875 -0.203125 C 23.300781 -0.046875 22.71875 0.109375 21.96875 0.265625 C 21.226562 0.429688 20.285156 0.515625 19.140625 0.515625 C 17.410156 0.515625 15.71875 0.144531 14.0625 -0.59375 C 12.40625 -1.34375 11.035156 -2.476562 9.953125 -4 C 8.867188 -5.53125 8.328125 -7.457031 8.328125 -9.78125 L 8.328125 -34.75 L 2.28125 -34.75 L 2.28125 -39.953125 L 8.328125 -39.953125 L 8.328125 -49.515625 L 14.453125 -49.515625 L 14.453125 -39.953125 Z M 22.984375 -39.953125 "/></g></g></g><g fill="#ffffff" fill-opacity="1"><g transform="translate(165.637201, 213.749986)"><g><path d="M 5.625 0 L 5.625 -39.953125 L 11.75 -39.953125 L 11.75 0 Z M 8.734375 -46.609375 C 7.535156 -46.609375 6.507812 -47.015625 5.65625 -47.828125 C 4.800781 -48.640625 4.375 -49.617188 4.375 -50.765625 C 4.375 -51.910156 4.800781 -52.890625 5.65625 -53.703125 C 6.507812 -54.515625 7.535156 -54.921875 8.734375 -54.921875 C 9.929688 -54.921875 10.957031 -54.515625 11.8125 -53.703125 C 12.675781 -52.890625 13.109375 -51.910156 13.109375 -50.765625 C 13.109375 -49.617188 12.675781 -48.640625 11.8125 -47.828125 C 10.957031 -47.015625 9.929688 -46.609375 8.734375 -46.609375 Z M 8.734375 -46.609375 "/></g></g></g><g fill="#ffffff" fill-opacity="1"><g transform="translate(183.005852, 213.749986)"><g><path d="M 22.984375 -39.953125 L 22.984375 -34.75 L 14.453125 -34.75 L 14.453125 -11.4375 C 14.453125 -9.707031 14.707031 -8.410156 15.21875 -7.546875 C 15.738281 -6.691406 16.398438 -6.117188 17.203125 -5.828125 C 18.003906 -5.546875 18.859375 -5.40625 19.765625 -5.40625 C 20.441406 -5.40625 20.992188 -5.441406 21.421875 -5.515625 C 21.859375 -5.597656 22.207031 -5.664062 22.46875 -5.71875 L 23.71875 -0.203125 C 23.300781 -0.046875 22.71875 0.109375 21.96875 0.265625 C 21.226562 0.429688 20.285156 0.515625 19.140625 0.515625 C 17.410156 0.515625 15.71875 0.144531 14.0625 -0.59375 C 12.40625 -1.34375 11.035156 -2.476562 9.953125 -4 C 8.867188 -5.53125 8.328125 -7.457031 8.328125 -9.78125 L 8.328125 -34.75 L 2.28125 -34.75 L 2.28125 -39.953125 L 8.328125 -39.953125 L 8.328125 -49.515625 L 14.453125 -49.515625 L 14.453125 -39.953125 Z M 22.984375 -39.953125 "/></g></g></g><g fill="#ffffff" fill-opacity="1"><g transform="translate(209.63085, 213.749986)"><g><path d="M 5.625 0 L 5.625 -39.953125 L 11.546875 -39.953125 L 11.546875 -33.90625 L 11.96875 -33.90625 C 12.675781 -35.882812 13.984375 -37.488281 15.890625 -38.71875 C 17.796875 -39.945312 19.953125 -40.5625 22.359375 -40.5625 C 23.472656 -40.5625 24.445312 -40.429688 25.28125 -40.171875 C 26.113281 -39.921875 26.84375 -39.566406 27.46875 -39.109375 L 25.375 -33.90625 C 24.945312 -34.132812 24.441406 -34.3125 23.859375 -34.4375 C 23.273438 -34.570312 22.601562 -34.640625 21.84375 -34.640625 C 18.925781 -34.640625 16.515625 -33.75 14.609375 -31.96875 C 12.703125 -30.195312 11.75 -27.96875 11.75 -25.28125 L 11.75 0 Z M 5.625 0 "/></g></g></g><g fill="#ffffff" fill-opacity="1"><g transform="translate(237.711903, 213.749986)"><g><path d="M 21.84375 0.828125 C 18.238281 0.828125 15.078125 -0.0234375 12.359375 -1.734375 C 9.648438 -3.453125 7.535156 -5.851562 6.015625 -8.9375 C 4.503906 -12.03125 3.75 -15.640625 3.75 -19.765625 C 3.75 -23.921875 4.503906 -27.550781 6.015625 -30.65625 C 7.535156 -33.757812 9.648438 -36.171875 12.359375 -37.890625 C 15.078125 -39.609375 18.238281 -40.46875 21.84375 -40.46875 C 25.445312 -40.46875 28.601562 -39.609375 31.3125 -37.890625 C 34.03125 -36.171875 36.148438 -33.757812 37.671875 -30.65625 C 39.191406 -27.550781 39.953125 -23.921875 39.953125 -19.765625 C 39.953125 -15.640625 39.191406 -12.03125 37.671875 -8.9375 C 36.148438 -5.851562 34.03125 -3.453125 31.3125 -1.734375 C 28.601562 -0.0234375 25.445312 0.828125 21.84375 0.828125 Z M 21.84375 -4.6875 C 24.582031 -4.6875 26.835938 -5.382812 28.609375 -6.78125 C 30.378906 -8.1875 31.6875 -10.035156 32.53125 -12.328125 C 33.382812 -14.617188 33.8125 -17.097656 33.8125 -19.765625 C 33.8125 -22.429688 33.382812 -24.914062 32.53125 -27.21875 C 31.6875 -29.53125 30.378906 -31.394531 28.609375 -32.8125 C 26.835938 -34.238281 24.582031 -34.953125 21.84375 -34.953125 C 19.101562 -34.953125 16.847656 -34.238281 15.078125 -32.8125 C 13.316406 -31.394531 12.007812 -29.53125 11.15625 -27.21875 C 10.300781 -24.914062 9.875 -22.429688 9.875 -19.765625 C 9.875 -17.097656 10.300781 -14.617188 11.15625 -12.328125 C 12.007812 -10.035156 13.316406 -8.1875 15.078125 -6.78125 C 16.847656 -5.382812 19.101562 -4.6875 21.84375 -4.6875 Z M 21.84375 -4.6875 "/></g></g></g><g fill="#ffffff" fill-opacity="1"><g transform="translate(281.393541, 213.749986)"><g><path d="M 11.75 -24.03125 L 11.75 0 L 5.625 0 L 5.625 -39.953125 L 11.546875 -39.953125 L 11.546875 -33.703125 L 12.0625 -33.703125 C 13 -35.734375 14.421875 -37.367188 16.328125 -38.609375 C 18.234375 -39.847656 20.695312 -40.46875 23.71875 -40.46875 C 27.757812 -40.46875 31.019531 -39.226562 33.5 -36.75 C 35.988281 -34.269531 37.234375 -30.476562 37.234375 -25.375 L 37.234375 0 L 31.109375 0 L 31.109375 -24.96875 C 31.109375 -28.101562 30.289062 -30.550781 28.65625 -32.3125 C 27.03125 -34.070312 24.796875 -34.953125 21.953125 -34.953125 C 19.015625 -34.953125 16.578125 -34 14.640625 -32.09375 C 12.710938 -30.195312 11.75 -27.507812 11.75 -24.03125 Z M 11.75 -24.03125 "/></g></g></g><g clip-path="url(#2acf3d25d4)"><g clip-path="url(#167c47c06a)"><path fill="#ffffff" d="M 243.5 175.1875 L 273.78125 175.1875 L 273.78125 214.21875 L 243.5 214.21875 Z M 243.5 175.1875 " fill-opacity="1" fill-rule="nonzero"/></g></g><g clip-path="url(#df10f30125)"><g clip-path="url(#15500de357)"><path fill="#ffffff" d="M 57.492188 175.1875 L 87.769531 175.1875 L 87.769531 214.21875 L 57.492188 214.21875 Z M 57.492188 175.1875 " fill-opacity="1" fill-rule="nonzero"/></g></g></svg>